<svg width="451" height="359" viewBox="0 0 451 359" fill="none" xmlns="http://www.w3.org/2000/svg">
<path fill-rule="evenodd" clip-rule="evenodd" d="M0 245.714C10.6018 243.338 21.6277 242.085 32.9464 242.085H75.4999C146.633 242.085 206.201 291.599 221.62 358.041H225.5V150C225.5 67.1573 158.343 0 75.5 0H32.9466C21.6278 0 10.6019 1.25367 0 3.62973V245.714Z" fill="#F8F8F8"/>
<path fill-rule="evenodd" clip-rule="evenodd" d="M451 245.714C440.398 243.338 429.372 242.085 418.054 242.085H375.5C304.367 242.085 244.799 291.599 229.38 358.041H225.5V150C225.5 67.1573 292.657 0 375.5 0H418.053C429.372 0 440.398 1.25367 451 3.62972V245.714Z" fill="#F8F8F8"/>
<path fill-rule="evenodd" clip-rule="evenodd" d="M14.3938 267.925C26.9743 264.501 40.2127 262.674 53.8778 262.674H77.2994C140.866 262.674 195.197 302.214 217.04 358.041H227.299V213.572C227.299 130.729 160.142 63.5718 77.2994 63.5718H53.8778C40.2127 63.5718 26.9743 65.3991 14.3938 68.8227V267.925Z" fill="#F8F8F8" fill-opacity="0.8"/>
<path fill-rule="evenodd" clip-rule="evenodd" d="M440.205 267.925C427.624 264.501 414.386 262.674 400.721 262.674H377.299C313.733 262.674 259.401 302.214 237.559 358.041H227.299V213.572C227.299 130.729 294.456 63.5718 377.299 63.5718H400.721C414.386 63.5718 427.624 65.3991 440.205 68.8228V267.925Z" fill="#F8F8F8" fill-opacity="0.8"/>
<path fill-rule="evenodd" clip-rule="evenodd" d="M29.9871 290.15C44.8974 285.178 60.8502 282.485 77.432 282.485C133.161 282.485 181.785 312.903 207.608 358.041H227.299V274.612C227.299 191.842 160.201 124.745 77.4321 124.745C60.8502 124.745 44.8974 127.438 29.9871 132.41V290.15Z" fill="#F8F8F8" fill-opacity="0.69"/>
<path fill-rule="evenodd" clip-rule="evenodd" d="M424.612 290.15C409.701 285.178 393.748 282.485 377.167 282.485C321.438 282.485 272.814 312.903 246.991 358.041H227.299V274.612C227.299 191.842 294.397 124.745 377.167 124.745C393.748 124.745 409.701 127.438 424.612 132.41V290.15Z" fill="#F8F8F8" fill-opacity="0.69"/>
<circle cx="55.7751" cy="48.5786" r="25.7886" fill="#2EA95F"/>
</svg>
